Coordinates
version=1
nRows=17
nColumns=34
inDegrees=yes

Units are S.I. units (second, meters, Newtons, ...)
If the header above contains a line with 'inDegrees', this indicates whether rotational values are in degrees (yes) or radians (no).

endheader
time	pelvis_tilt	pelvis_list	pelvis_rotation	pelvis_tx	pelvis_ty	pelvis_tz	hip_flexion_r	hip_adduction_r	hip_rotation_r	knee_angle_r	ankle_angle_r	subtalar_angle_r	mtp_angle_r	hip_flexion_l	hip_adduction_l	hip_rotation_l	knee_angle_l	ankle_angle_l	subtalar_angle_l	mtp_angle_l	lumbar_extension	lumbar_bending	lumbar_rotation	arm_flex_r	arm_add_r	arm_rot_r	elbow_flex_r	pro_sup_r	arm_flex_l	arm_add_l	arm_rot_l	elbow_flex_l	pro_sup_l
      1.70833330	    -65.17768164	    -90.00000018	    152.79539032	    -13.04901988	      1.23297066	      1.23950421	    -30.00000025	      3.31308089	     34.87980107	     71.47830769	    -44.55652291	     35.00000000	      0.00000000	    -30.00000025	     30.00000025	    -39.99999995	     71.85200525	    -50.00000000	    -35.00000000	      0.00000000	     87.30311775	    -90.00000018	    -85.68471801	    -82.01080434	    -24.88968768	    -63.86335532	    108.28756602	     50.00997500	    -70.22043832	     22.87029674	     40.70406520	    123.71663870	    119.74817918
      1.71250000	    -64.76302554	    -90.00000018	    152.38072072	    -13.05612177	      1.23227775	      1.24160663	    -30.00000025	      2.88358233	     35.42003090	     71.57178363	    -44.45212391	     35.00000000	      0.00000000	    -30.00000025	     30.00000025	    -39.99999995	     72.11209349	    -50.00000000	    -35.00000000	      0.00000000	     87.34534973	    -90.00000018	    -85.72695087	    -82.63867330	    -25.72653341	    -66.00777190	    110.76182456	     49.71432712	    -70.63059975	     23.58834405	     42.15722456	    126.13293910	    119.74817918
      1.71666670	    -64.36515803	    -90.00000018	    151.98283342	    -13.06210683	      1.23174402	      1.24350810	    -30.00000025	      2.49564225	     36.07371382	     71.66396955	    -44.22042546	     35.00000000	      0.00000000	    -30.00000025	     30.00000025	    -39.99999995	     72.31975158	    -50.00000000	    -34.69501562	      0.00000000	     87.38079941	    -90.00000018	    -85.76240184	    -83.10984711	    -26.54845139	    -68.34909227	    113.61108760	     49.15126982	    -70.88164839	     24.54250267	     43.90713068	    128.47662639	    119.74817918
      1.72083330	    -64.00710264	    -90.00000018	    151.62476466	    -13.06657974	      1.23155488	      1.24513129	    -30.00000025	      2.18625156	     36.78907852	     71.77781788	    -43.88653547	     35.00000000	      0.00000000	    -30.00000025	     30.00000025	    -39.99999995	     72.45558072	    -50.00000000	    -33.34395939	      0.00000000	     87.47593754	    -90.00000018	    -85.85754083	    -83.93680315	    -27.96073104	    -70.92390817	    115.95110160	     48.67101065	    -71.21031533	     25.55887844	     45.82789672	    130.63117734	    119.74817918
      1.72500000	    -63.71651927	    -90.00000018	    151.33416819	    -13.06944927	      1.23146373	      1.24639567	    -30.00000025	      1.94937653	     37.49838344	     71.87457563	    -43.42612640	     35.00000000	      0.00000000	    -30.00000025	     30.00000025	    -39.99999995	     72.50546978	    -50.00000000	    -31.91352036	      0.00000000	     87.59374647	    -90.00000018	    -85.97535057	    -84.54678367	    -29.36467435	    -73.62180944	    118.38418539	     48.09619436	    -71.34355702	     26.89503147	     47.97065106	    132.57060905	    119.74817918
      1.72916670	    -63.50936746	    -90.00000018	    151.12700423	    -13.07075680	      1.23154544	      1.24713471	    -30.00000025	      1.77203338	     38.13152909	     71.92566182	    -42.87145699	     35.00000000	      0.00000000	    -30.00000025	     30.00000025	    -39.99999995	     72.43974631	    -50.00000000	    -30.39613547	      0.00000000	     87.71382493	    -90.00000018	    -86.09542978	    -85.12623710	    -30.80530343	    -76.39886610	    120.53782745	     47.45116574	    -71.41136055	     28.43524449	     50.16859992	    134.19931868	    119.74817918
      1.73333330	    -63.37269639	    -90.00000018	    150.99031984	    -13.07067138	      1.23188265	      1.24740328	    -30.00000025	      1.74981702	     38.80812636	     72.04625073	    -42.38071595	     35.00000000	      0.00000000	    -30.00000025	     30.00000025	    -39.99999995	     72.30572658	    -50.00000000	    -28.99095147	      0.00000000	     87.88601887	    -90.00000018	    -86.26762452	    -85.56985552	    -32.29579399	    -79.39207689	    122.51412546	     46.61578407	    -71.45444059	     30.20057297	     52.50723163	    135.54495798	    119.74817918
      1.73750000	    -63.30146655	    -90.00000018	    150.91907622	    -13.06951584	      1.23268462	      1.24717986	    -30.00000025	      1.69040735	     39.35179820	     72.08690067	    -41.90316167	     35.00000000	      0.00000000	    -30.00000025	     30.00000025	    -39.99999995	     72.10478921	    -50.00000000	    -27.65128136	      0.00000000	     88.01187074	    -90.00000018	    -86.39347720	    -85.99577689	    -33.72062767	    -82.41541367	    124.09181865	     45.62363252	    -71.47723978	     32.07532841	     54.73133832	    136.57790250	    119.74817918
      1.74166670	    -63.29594248	    -90.00000018	    150.91318394	    -13.06767292	      1.23332532	      1.24656056	    -30.00000025	      1.68574614	     39.80000896	     72.10361692	    -41.43391042	     35.00000000	      0.00000000	    -30.00000025	     30.00000025	    -39.99999995	     71.85455749	    -50.00000000	    -26.49964401	      0.00000000	     88.08015920	    -90.00000018	    -86.46178769	    -86.53174124	    -34.94366947	    -84.83085326	    126.63606860	     20.00212402	    -71.64981345	     34.02312724	     57.08584022	    137.34068265	    119.74817918
      1.74583330	    -63.35083196	    -90.00000018	    150.96805986	    -13.06531044	      1.23413778	      1.24574510	    -30.00000025	      1.64767380	     39.99999995	     72.02611112	    -41.29630872	     35.00000000	      0.00000000	    -30.00000025	     30.00000025	    -39.99999995	     71.59232783	    -50.00000000	    -25.28661287	      0.00000000	     88.09060117	    -90.00000018	    -86.47223043	    -87.21061226	    -36.02321921	    -87.88355906	    127.52052648	     19.92095236	    -71.65697614	     35.71126089	     58.76408856	    138.21695799	    119.74817918
      1.75000000	    -63.45331267	    -90.00000018	    151.07052700	    -13.06260023	      1.23539838	      1.24478065	    -30.00000025	      1.60336498	     39.99999995	     71.90660355	    -41.23248237	     35.00000000	      0.00000000	    -30.00000025	     30.00000025	    -39.99999995	     71.34055845	    -50.00000000	    -24.45299198	      0.00000000	     88.03365227	    -90.00000018	    -86.41528227	    -87.93437862	    -36.90131880	    -90.88861561	    128.10225732	     19.70754256	    -71.81819325	     37.19817796	     60.53244543	    139.03027135	    119.74817918
      1.75416670	    -63.58194008	    -90.00000018	    151.19914042	    -13.05987022	      1.23640250	      1.24372591	    -30.00000025	      1.66532925	     39.99999995	     71.83033862	    -41.09430758	     35.00000000	      0.00000000	    -30.00000025	     30.00000025	    -39.99999995	     71.13324172	    -50.00000000	    -23.92838561	      0.00000000	     87.90556928	    -90.00000018	    -86.28720001	    -89.01741813	    -37.66875030	    -93.97019423	    128.41588897	     19.37243473	    -72.08419796	     38.38922167	     62.30433775	    139.86317832	    119.74817918
      1.75833330	    -63.72297042	    -90.00000018	    151.34015623	    -13.05723469	      1.23723295	      1.24261522	    -30.00000025	      1.80130594	     39.99999995	     71.78428895	    -40.89278998	     35.00000000	      0.00000000	    -30.00000025	     30.00000025	    -39.99999995	     70.96622506	    -50.00000000	    -23.77977081	      0.00000000	     87.72904063	    -90.00000018	    -86.11067210	    -90.43061114	    -38.38942225	    -97.08149146	    128.43505400	     18.91793505	    -72.43499000	     39.27283372	     64.03368769	    140.64952269	    119.74817918
      1.76250000	    -63.86493634	    -90.00000018	    151.48210725	    -13.05491393	      1.23762193	      1.24159188	    -30.00000025	      2.00020974	     39.99999995	     71.77108165	    -40.69637103	     35.00000000	      0.00000000	    -30.00000025	     30.00000025	    -39.99999995	     70.86306976	    -50.00000000	    -24.01018252	      0.00000000	     87.52572744	    -90.00000018	    -85.90735963	    -92.16607131	    -39.18110778	   -100.32343132	    128.14790996	     18.35058340	    -72.80441859	     39.90417641	     65.69704979	    141.35257528	    119.74817918
      1.76666670	    -64.00293396	    -90.00000018	    151.62008887	    -13.05289710	      1.23803905	      1.24061181	    -30.00000025	      2.24405813	     39.99999995	     71.78213753	    -40.48435142	     35.00000000	      0.00000000	    -30.00000025	     30.00000025	    -39.99999995	     70.81745544	    -50.00000000	    -24.49153536	      0.00000000	     87.33289534	    -90.00000018	    -85.71452828	    -94.21252010	    -40.11079127	   -103.70939568	    127.50200222	     17.64255942	    -73.21374534	     40.39053932	     67.34110050	    141.98289529	    119.74817918
      1.77083330	    -64.13434546	    -90.00000018	    151.75114662	    -13.05133603	      1.23855563	      1.23965645	    -30.00000025	      2.52988563	     39.99999995	     71.83995936	    -40.22439068	     35.00000000	      0.00000000	    -30.00000025	     30.00000025	    -39.99999995	     70.79744833	    -50.00000000	    -25.07019155	      0.00000000	     87.25229589	    -90.00000018	    -85.63394549	    -96.51821923	    -41.50614153	   -107.09318787	    127.34860939	      2.78818387	    -73.89346136	     41.08049159	     69.42571406	    142.65112159	    119.74817918
      1.77500000	    -64.27393431	    -90.00000018	    151.89071900	    -13.05029606	      1.23883128	      1.23892817	    -30.00000025	      2.81219578	     39.92518943	     71.87042940	    -40.06959289	     35.00000000	      0.00000000	    -30.00000025	     30.00000025	    -39.99999995	     70.79790855	    -50.00000000	    -25.79629385	      0.00000000	     87.03216675	    -90.00000018	    -85.41381705	    -99.16815010	    -42.35095276	   -110.79319856	    126.04593094	      2.69984616	    -74.07548777	     41.13541330	     70.46116075	    143.17365641	    119.74817918
